<svg width="24" height="24" viewBox="0 0 24 24" fill="none" xmlns="http://www.w3.org/2000/svg">
<path d="M16.6875 12.7188L11.6875 17.7188C11.5 17.9062 11.25 18 11 18C10.7188 18 10.4688 17.9062 10.2812 17.7188C9.875 17.3438 9.875 16.6875 10.2812 16.3125L13.5625 13H4C3.4375 13 3 12.5625 3 12C3 11.4688 3.4375 11 4 11H13.5625L10.2812 7.71875C9.875 7.34375 9.875 6.6875 10.2812 6.3125C10.6562 5.90625 11.3125 5.90625 11.6875 6.3125L16.6875 11.3125C17.0938 11.6875 17.0938 12.3438 16.6875 12.7188Z" fill="#FEFEFF"/>
</svg>
