<svg width="14" height="16" viewBox="0 0 14 16" fill="none" xmlns="http://www.w3.org/2000/svg">
<path d="M3.28125 5.1875V3.78125C3.28125 1.99414 4.74609 0.5 6.5625 0.5C8.34961 0.5 9.84375 1.99414 9.84375 3.78125V5.1875H11.7188C12.4805 5.1875 13.125 5.83203 13.125 6.59375V12.6875C13.125 14.2402 11.8652 15.5 10.3125 15.5H2.8125C1.23047 15.5 0 14.2402 0 12.6875V6.59375C0 5.83203 0.615234 5.1875 1.40625 5.1875H3.28125ZM4.6875 5.1875H8.4375V3.78125C8.4375 2.75586 7.58789 1.90625 6.5625 1.90625C5.50781 1.90625 4.6875 2.75586 4.6875 3.78125V5.1875ZM1.40625 6.59375V12.6875C1.40625 13.4785 2.02148 14.0938 2.8125 14.0938H10.3125C11.0742 14.0938 11.7188 13.4785 11.7188 12.6875V6.59375H9.84375V8.23438C9.84375 8.64453 9.52148 8.9375 9.14062 8.9375C8.73047 8.9375 8.4375 8.64453 8.4375 8.23438V6.59375H4.6875V8.23438C4.6875 8.64453 4.36523 8.9375 3.98438 8.9375C3.57422 8.9375 3.28125 8.64453 3.28125 8.23438V6.59375H1.40625Z" fill="#201B21"/>
</svg>
