<svg width="14" height="14" viewBox="0 0 14 14" fill="none" xmlns="http://www.w3.org/2000/svg">
<path fill-rule="evenodd" clip-rule="evenodd" d="M7.0007 0.600006C5.26255 0.600006 5.04441 0.607606 4.36174 0.638673C3.6804 0.669873 3.21533 0.777741 2.80839 0.93601C2.38745 1.09948 2.03038 1.31815 1.67464 1.67402C1.31864 2.02975 1.09997 2.38682 0.935968 2.80763C0.7773 3.2147 0.669298 3.6799 0.638631 4.36098C0.608098 5.04365 0.600098 5.26192 0.600098 7.00007C0.600098 8.73822 0.607831 8.95569 0.638765 9.63837C0.670098 10.3197 0.777966 10.7848 0.936101 11.1917C1.0997 11.6127 1.31837 11.9697 1.67424 12.3255C2.02985 12.6815 2.38692 12.9007 2.80759 13.0641C3.21479 13.2224 3.68 13.3303 4.3612 13.3615C5.04388 13.3925 5.26188 13.4001 6.9999 13.4001C8.73818 13.4001 8.95565 13.3925 9.63833 13.3615C10.3197 13.3303 10.7853 13.2224 11.1925 13.0641C11.6133 12.9007 11.9698 12.6815 12.3254 12.3255C12.6814 11.9697 12.9001 11.6127 13.0641 11.1918C13.2214 10.7848 13.3294 10.3196 13.3614 9.6385C13.3921 8.95583 13.4001 8.73822 13.4001 7.00007C13.4001 5.26192 13.3921 5.04379 13.3614 4.36111C13.3294 3.67977 13.2214 3.2147 13.0641 2.80776C12.9001 2.38682 12.6814 2.02975 12.3254 1.67402C11.9694 1.31801 11.6134 1.09934 11.1921 0.93601C10.7841 0.777741 10.3187 0.669873 9.63739 0.638673C8.95472 0.607606 8.73738 0.600006 6.9987 0.600006H7.0007ZM6.42653 1.75333C6.59693 1.75307 6.78707 1.75333 7.00067 1.75333C8.70949 1.75333 8.91202 1.75947 9.58683 1.79013C10.2108 1.81867 10.5495 1.92294 10.7751 2.01054C11.0738 2.12654 11.2867 2.26521 11.5106 2.48921C11.7346 2.71321 11.8733 2.92655 11.9895 3.22522C12.0771 3.45055 12.1815 3.78922 12.2099 4.41323C12.2406 5.0879 12.2473 5.29057 12.2473 6.99859C12.2473 8.70661 12.2406 8.90927 12.2099 9.58395C12.1814 10.208 12.0771 10.5466 11.9895 10.772C11.8735 11.0706 11.7346 11.2833 11.5106 11.5072C11.2866 11.7312 11.0739 11.8698 10.7751 11.9858C10.5498 12.0738 10.2108 12.1778 9.58683 12.2064C8.91216 12.237 8.70949 12.2437 7.00067 12.2437C5.29172 12.2437 5.08918 12.237 4.41451 12.2064C3.7905 12.1776 3.45183 12.0733 3.2261 11.9857C2.92743 11.8697 2.71409 11.731 2.49009 11.507C2.26609 11.283 2.12742 11.0702 2.01115 10.7714C1.92355 10.5461 1.81915 10.2074 1.79075 9.58342C1.76008 8.90874 1.75395 8.70607 1.75395 6.99699C1.75395 5.2879 1.76008 5.0863 1.79075 4.41163C1.81928 3.78762 1.92355 3.44895 2.01115 3.22335C2.12715 2.92468 2.26609 2.71134 2.49009 2.48734C2.71409 2.26334 2.92743 2.12467 3.2261 2.0084C3.4517 1.9204 3.7905 1.8164 4.41451 1.78773C5.00492 1.76107 5.23372 1.75307 6.42653 1.75173V1.75333ZM10.417 2.81601C9.99297 2.81601 9.64897 3.15962 9.64897 3.58376C9.64897 4.00776 9.99297 4.35176 10.417 4.35176C10.841 4.35176 11.185 4.00776 11.185 3.58376C11.185 3.15975 10.841 2.81601 10.417 2.81601ZM7.00071 3.71335C5.18562 3.71335 3.71401 5.18497 3.71401 7.00006C3.71401 8.81514 5.18562 10.2861 7.00071 10.2861C8.81579 10.2861 10.2869 8.81514 10.2869 7.00006C10.2869 5.18497 8.81579 3.71335 7.00071 3.71335ZM7.00068 4.8667C8.17883 4.8667 9.13404 5.82178 9.13404 7.00006C9.13404 8.1782 8.17883 9.13341 7.00068 9.13341C5.8224 9.13341 4.86733 8.1782 4.86733 7.00006C4.86733 5.82178 5.8224 4.8667 7.00068 4.8667Z" fill="white"/>
</svg>
