<svg width="24" height="24" viewBox="0 0 24 24" fill="none" xmlns="http://www.w3.org/2000/svg">
<path d="M14.0727 18.4091C12.1636 17.7 10.2 17.5909 8.4 18.0818C7.14545 18.4091 5.94545 19.0636 4.85454 19.8818L4.09089 20.5363L3.87271 20.7545L4.36362 21.1909C4.41817 21.1909 4.41817 21.2454 4.47272 21.3C4.58181 21.4091 4.69091 21.4636 4.85454 21.5727L5.1818 21.7909L5.50908 21.5182C5.56362 21.4636 5.67271 21.3545 5.78181 21.3C6.76362 20.4818 7.85453 19.9363 8.99998 19.6636C10.4727 19.2818 12.0545 19.3363 13.6363 19.9363C14.9454 20.4272 17.6182 21.0272 20.8364 19.6636L20.9455 19.6091L21.1091 19.4454C21.1091 19.3909 21.1636 19.3909 21.2182 19.3363C21.4909 19.0091 21.7636 18.6818 21.9818 18.3L23.0727 16.6091L21.3273 17.5909C18.7636 19.0091 16.4182 19.2818 14.0727 18.4091Z" fill="black"/>
<path d="M6.6 12.5181C8.07273 12.1363 9.65455 12.1908 11.2364 12.7908C12.9818 13.4454 17.4546 14.3727 22.4727 9.8454L23.5636 8.75449L23.4545 8.48176C23.4 8.26358 23.2909 7.99086 23.1818 7.71813L22.9091 6.95448L22.3636 7.49993C22.3091 7.60902 22.2 7.66357 22.0909 7.77266C19.6909 10.2272 15.9818 12.7363 11.7273 11.209C9.81818 10.4999 7.85455 10.3909 6.05455 10.8818C4.30909 11.3727 2.78182 12.2999 1.36364 13.609V13.5545L0.545455 14.4272C0.545455 14.4818 0.490919 14.4818 0.436374 14.5363L0.272727 14.6999L0.327276 14.9181C0.381822 15.1908 0.490909 15.4636 0.545455 15.7363L0.872731 16.609L1.41819 15.8999C1.47273 15.7909 1.58182 15.7363 1.63636 15.6272C2.78182 14.5909 4.36364 13.1181 6.6 12.5181Z" fill="black"/>
<path d="M1.3091 11.5363C2.56365 10.2272 3.98182 9.40903 5.50909 8.97267C6.98182 8.59085 8.56364 8.64539 10.1455 9.24539C15.0545 11.0454 19.3091 8.09994 21.1636 6.51812L21.8727 5.80904L22.1455 5.59084L21.9273 5.26358C21.7636 5.09995 21.6546 4.88176 21.4909 4.66358L21.1636 4.22721L20.7818 4.60903C20.7273 4.66358 20.6182 4.77266 20.5636 4.82721C18.2727 7.00903 14.7273 9.2454 10.6909 7.71813C8.78182 7.00904 6.81819 6.89994 5.01819 7.39085C3.87273 7.71813 2.78182 8.26358 1.69091 8.97267L0.545455 9.89995C0.436364 10.009 0.381818 10.0636 0.272727 10.1727L0.163646 10.2818V10.4454C0.109101 10.8272 0.109094 11.209 0.0545488 11.5363L0 12.8999L0.927279 11.9181C1.03637 11.809 1.14547 11.6454 1.3091 11.5363Z" fill="black"/>
<path d="M15.6546 22.1181C15.4909 22.0636 15.3818 22.009 15.2182 21.9545C13.3091 21.2454 11.3455 21.1363 9.54545 21.6272C9.16364 21.7363 8.78183 21.8454 8.40001 22.009L7.09091 22.6091L6.76365 22.7727L7.85456 23.1545C8.18183 23.2636 8.5091 23.3727 8.83637 23.4818L9 23.5363L9.16365 23.4818C9.32728 23.4272 9.49092 23.3181 9.65455 23.3181C9.76364 23.3181 9.87274 23.2636 9.98183 23.2091C11.2909 22.8818 12.7091 22.8818 14.2364 23.3727C14.4 23.4272 14.5091 23.4818 14.6727 23.5363L14.9455 23.6454L15.1091 23.5909C15.4909 23.4818 15.9273 23.3727 16.2546 23.2091L17.7818 22.6636L16.2 22.2818C16.0364 22.2272 15.8182 22.1727 15.6546 22.1181Z" fill="black"/>
<path d="M24 10.8272L23.1818 11.6454C23.0727 11.7545 22.9637 11.8636 22.8546 11.9727C20.6182 14.0999 17.0182 16.3908 12.9818 14.8636C11.0728 14.1545 9.10912 14.0454 7.30912 14.5363C5.61821 15.0272 4.09093 15.8999 2.72729 17.209L2.01821 17.9727L1.80003 18.2454L2.01821 18.5727C2.18184 18.7908 2.29094 18.9545 2.40003 19.1727L2.72729 19.6636L3.10911 19.1727C3.16366 19.1181 3.27275 19.009 3.32729 18.9545C4.63638 17.5363 6.05456 16.6636 7.69093 16.2272C9.16366 15.8454 10.7455 15.8999 12.3273 16.4999C13.6909 16.9908 15.1091 17.1545 16.5273 16.9908C19.0364 16.7181 21.5455 15.2999 23.4 13.7181C23.5091 13.609 23.6182 13.5545 23.7273 13.4454L23.8909 13.2817V13.1181C23.8909 12.7908 23.9455 12.409 23.9455 12.0817L24 10.8272Z" fill="black"/>
<path d="M3.27273 5.80905C3.6 5.64542 3.98183 5.53632 4.3091 5.42723C5.78183 5.04541 7.36365 5.09996 8.94547 5.69996C9.98183 6.08178 11.0182 6.24541 12.1636 6.24541C14.4546 6.24541 16.7455 5.42723 18.8727 3.84541L19.9636 2.97268L19.4727 2.59086C19.3091 2.42722 19.0909 2.26359 18.8727 2.1545L18.5455 1.93632L18.2727 2.1545C18.1636 2.20905 18.1091 2.31814 18 2.37268C15.1091 4.5545 12.2182 5.15451 9.49092 4.11814C7.52729 3.40905 5.56364 3.24541 3.6 3.84541C3.43637 3.89996 3.27273 3.9545 3.05455 4.00904L2.94547 4.06359L2.78182 4.22722C2.78182 4.28177 2.72729 4.28177 2.67274 4.33632C2.45456 4.66359 2.18182 4.93633 1.96364 5.2636L0.927279 6.84541L2.61819 5.97268C2.89092 5.97268 3.10909 5.8636 3.27273 5.80905Z" fill="black"/>
<path d="M7.74546 2.09994L7.90909 2.15449C8.61818 2.42721 9.7091 2.69994 11.0727 2.69994C12.4909 2.69994 13.8546 2.37266 15.2182 1.82721L16.9091 1.00903L15.7636 0.627219C15.4364 0.518129 15.1091 0.409038 14.7273 0.354492H14.5636L14.4 0.409024C14.2364 0.46357 14.0727 0.572674 13.9091 0.627219C12.2727 1.22722 10.6364 1.33631 9.05455 0.899947C8.89091 0.845401 8.72728 0.790846 8.56364 0.7363L8.40001 0.681752L8.23637 0.7363C7.90909 0.845391 7.58183 0.954489 7.25456 1.11813L6 1.66358L7.3091 2.04539C7.4182 1.99084 7.58183 2.04539 7.74546 2.09994Z" fill="black"/>
</svg>
