<svg width="18" height="18" viewBox="0 0 18 18" fill="none" xmlns="http://www.w3.org/2000/svg">
<path d="M13.875 9C13.875 9.42188 13.5234 9.77344 13.125 9.77344H9.75V13.1484C9.75 13.5469 9.39844 13.875 9 13.875C8.57812 13.875 8.25 13.5469 8.25 13.1484V9.77344H4.875C4.45312 9.77344 4.125 9.42188 4.125 9C4.125 8.60156 4.45312 8.27344 4.875 8.27344H8.25V4.89844C8.25 4.47656 8.57812 4.125 9 4.125C9.39844 4.125 9.75 4.47656 9.75 4.89844V8.27344H13.125C13.5234 8.25 13.875 8.60156 13.875 9Z" fill="#201B21"/>
</svg>
