<svg width="12" height="10" viewBox="0 0 12 10" fill="none" xmlns="http://www.w3.org/2000/svg">
<path fill-rule="evenodd" clip-rule="evenodd" d="M5.6406 2.75375L5.66578 3.16897L5.2461 3.11813C3.71843 2.92323 2.38383 2.26225 1.25067 1.15216L0.696681 0.601346L0.553988 1.0081C0.251813 1.91482 0.444869 2.87238 1.0744 3.51641C1.41015 3.87232 1.33461 3.92316 0.755438 3.71131C0.553988 3.64352 0.377719 3.59268 0.360931 3.6181C0.302175 3.67742 0.503625 4.44855 0.663106 4.75362C0.881344 5.17732 1.32621 5.59254 1.81305 5.83829L2.22434 6.03319L1.73751 6.04167C1.26746 6.04167 1.25067 6.05014 1.30103 6.2281C1.46891 6.77891 2.13201 7.36362 2.87066 7.61784L3.39108 7.79579L2.93781 8.06696C2.26631 8.45676 1.4773 8.67709 0.688288 8.69404C0.310569 8.70251 0 8.73641 0 8.76183C0 8.84657 1.02404 9.32111 1.61999 9.50754C3.40786 10.0584 5.53148 9.82108 7.1263 8.88047C8.25945 8.21102 9.39261 6.8806 9.92142 5.59254C10.2068 4.90615 10.4922 3.65199 10.4922 3.05034C10.4922 2.66053 10.5174 2.60969 10.9874 2.14362C11.2644 1.87245 11.5246 1.57586 11.575 1.49112C11.6589 1.33011 11.6505 1.33011 11.2224 1.47417C10.509 1.72839 10.4083 1.69449 10.7608 1.31316C11.021 1.04199 11.3316 0.550502 11.3316 0.406443C11.3316 0.381021 11.2057 0.423391 11.063 0.499657C10.9119 0.584398 10.5761 0.711508 10.3243 0.787774L9.87105 0.931833L9.45976 0.65219C9.23313 0.499657 8.91417 0.330177 8.74629 0.279333C8.31821 0.160697 7.6635 0.177645 7.27738 0.313229C6.22816 0.69456 5.56506 1.67755 5.6406 2.75375Z" fill="white"/>
</svg>
