<svg width="14" height="10" viewBox="0 0 14 10" fill="none" xmlns="http://www.w3.org/2000/svg">
<path fill-rule="evenodd" clip-rule="evenodd" d="M12.0009 0.874686C12.5517 1.02582 12.9854 1.47113 13.1326 2.03663C13.4001 3.06154 13.4001 5.20002 13.4001 5.20002C13.4001 5.20002 13.4001 7.33843 13.1326 8.36341C12.9854 8.92892 12.5517 9.37423 12.0009 9.52543C11.0028 9.80002 7.0001 9.80002 7.0001 9.80002C7.0001 9.80002 2.99741 9.80002 1.99923 9.52543C1.44846 9.37423 1.01472 8.92892 0.867516 8.36341C0.600098 7.33843 0.600098 5.20002 0.600098 5.20002C0.600098 5.20002 0.600098 3.06154 0.867516 2.03663C1.01472 1.47113 1.44846 1.02582 1.99923 0.874686C2.99741 0.600021 7.0001 0.600021 7.0001 0.600021C7.0001 0.600021 11.0028 0.600021 12.0009 0.874686ZM5.80011 3.39998V7.39998L9.00011 5.40006L5.80011 3.39998Z" fill="white"/>
</svg>
